<?xml version="1.0" encoding="utf-8"?>
<!-- Generator: Adobe Illustrator 19.2.0, SVG Export Plug-In . SVG Version: 6.00 Build 0)  -->
<svg version="1.1" id="Layer_1" xmlns="http://www.w3.org/2000/svg" xmlns:xlink="http://www.w3.org/1999/xlink" x="0px" y="0px"
	 viewBox="0 0 60 60" style="enable-background:new 0 0 60 60;" xml:space="preserve">
<style type="text/css">
	.st0{fill:#F46767;}
</style>
<path class="st0" d="M10,25.5h13c0.6,0,1-0.4,1-1s-0.4-1-1-1H10c-0.6,0-1,0.4-1,1S9.4,25.5,10,25.5z"/>
<path class="st0" d="M36,29.5H10c-0.6,0-1,0.4-1,1s0.4,1,1,1h26c0.6,0,1-0.4,1-1S36.6,29.5,36,29.5z"/>
<path class="st0" d="M36,35.5H10c-0.6,0-1,0.4-1,1s0.4,1,1,1h26c0.6,0,1-0.4,1-1S36.6,35.5,36,35.5z"/>
<path class="st0" d="M54.1,2.5L19.9,2.5c-3.3,0-5.9,2.7-5.9,5.9v5.1l-8.1,0c-3.3,0-5.9,2.7-5.9,5.9v21.1c0,3.3,2.7,5.9,5.9,5.9H12
	v10c0,0.4,0.3,0.8,0.6,0.9c0.1,0,0.2,0.1,0.4,0.1c0.3,0,0.5-0.1,0.7-0.3l9.7-10.7l16.6-0.1c3.3,0,5.9-2.7,5.9-5.9v-0.1l5.3,5.8
	c0.2,0.2,0.5,0.3,0.7,0.3c0.1,0,0.2,0,0.4-0.1c0.4-0.1,0.6-0.5,0.6-0.9v-10h1.1c3.3,0,5.9-2.7,5.9-5.9V8.5C60,5.2,57.3,2.5,54.1,2.5
	z M44,40.5c0,2.2-1.8,3.9-3.9,3.9L23,44.5c-0.3,0-0.5,0.1-0.7,0.3L14,53.9v-8.4c0-0.6-0.4-1-1-1H5.9c-2.2,0-3.9-1.8-3.9-3.9V19.5
	c0-2.2,1.8-3.9,3.9-3.9l9.1,0h0l25.1-0.1c2.2,0,3.9,1.8,3.9,3.9C44,19.4,44,40.5,44,40.5z M58,29.6c0,2.2-1.8,3.9-3.9,3.9H52
	c-0.6,0-1,0.4-1,1v8.4l-5-5.5V19.4c0-3.3-2.7-5.9-5.9-5.9l-24.1,0V8.4c0-2.2,1.8-3.9,3.9-3.9l34.1,0.1h0c2.2,0,3.9,1.8,3.9,3.9
	L58,29.6L58,29.6z"/>
</svg>
