<?xml version="1.0" encoding="utf-8"?>
<!-- Generator: Adobe Illustrator 19.2.0, SVG Export Plug-In . SVG Version: 6.00 Build 0)  -->
<svg version="1.1" id="Layer_1" xmlns="http://www.w3.org/2000/svg" xmlns:xlink="http://www.w3.org/1999/xlink" x="0px" y="0px"
	 viewBox="0 0 512 512" style="enable-background:new 0 0 512 512;" xml:space="preserve">
<style type="text/css">
	.st0{fill:#FFFFFF;}
</style>
<g>
	<g>
		<path class="st0" d="M164,383.6c42.5,50.7,85.2,82.2,87.5,83.9c1.3,1,2.9,1.5,4.5,1.5s3.1-0.5,4.5-1.5c2.3-1.6,45-33.2,87.5-83.9
			c25.2-30,45.2-60.7,59.6-91.3c18.1-38.4,27.3-76.7,27.3-113.8c0-46.6-18-90.8-50.8-124.4c-32.7-33.6-76.4-52.8-123-54.1
			C259.5,0,257.8,0,256,0s-3.5,0-5.1,0.1c-46.6,1.3-90.3,20.5-123,54.1C95.1,87.8,77.1,132,77.1,178.6c0,37.1,9.2,75.4,27.3,113.8
			C118.8,322.9,138.8,353.6,164,383.6z M138.6,64.7c30-30.8,70-48.4,112.7-49.6c1.5,0,3-0.1,4.7-0.1s3.2,0,4.7,0.1c0,0,0,0,0,0
			c42.7,1.2,82.7,18.8,112.7,49.6c30,30.8,46.6,71.3,46.6,113.9c0,34.9-8.7,71-25.9,107.4c-13.9,29.4-33.2,59-57.6,88
			c-34.3,40.9-68.5,68.8-80.5,78.1c-12-9.3-46.2-37.3-80.5-78.1c-24.3-29-43.7-58.6-57.6-88c-17.2-36.4-25.9-72.5-25.9-107.4
			C92.1,135.9,108.6,95.5,138.6,64.7z"/>
		<path class="st0" d="M256,297.4c68,0,123.3-55.3,123.3-123.3S324,50.7,256,50.7s-123.3,55.3-123.3,123.3
			C132.7,242.1,188,297.4,256,297.4z M256,65.7c59.7,0,108.3,48.6,108.3,108.3S315.7,282.4,256,282.4
			c-59.7,0-108.3-48.6-108.3-108.3C147.7,114.3,196.3,65.7,256,65.7z"/>
		<path class="st0" d="M182.1,161l34.5,25l-13.2,40.5c-1.6,4.9,0.1,10.2,4.3,13.2c4.1,3,9.7,3,13.9,0l34.5-25l34.5,25
			c2.1,1.5,4.5,2.3,6.9,2.3c2.4,0,4.9-0.8,6.9-2.3c4.1-3,5.9-8.3,4.3-13.2L295.5,186l34.5-25c4.1-3,5.9-8.3,4.3-13.2
			c-1.6-4.9-6.1-8.2-11.2-8.2h-42.6l-13.2-40.5c-1.6-4.9-6.1-8.2-11.2-8.2s-9.6,3.3-11.2,8.2l-13.2,40.5H189
			c-5.1,0-9.6,3.3-11.2,8.2C176.2,152.7,177.9,158,182.1,161z M233.9,154.6c5.1,0,9.6-3.3,11.2-8.2l10.8-33.4l10.8,33.4
			c1.6,4.9,6.1,8.2,11.2,8.2h35.1l-28.4,20.6c-4.1,3-5.9,8.3-4.3,13.2l10.8,33.4l-28.4-20.6c-4.1-3-9.7-3-13.9,0l-28.4,20.6
			l10.8-33.4c1.6-4.9-0.1-10.2-4.3-13.2l-28.4-20.6L233.9,154.6L233.9,154.6z"/>
		<path class="st0" d="M461.3,479.6l-49.7-94.2c-3.8-7.3-11.3-11.8-19.5-11.8h-21.6c-4.1,0-7.5,3.4-7.5,7.5s3.4,7.5,7.5,7.5H392
			c2.6,0,5,1.4,6.2,3.8l49.7,94.2c1.7,3.2,0.4,5.9-0.2,6.9s-2.4,3.4-6,3.4H70.2c-3.6,0-5.4-2.4-6-3.4c-0.6-1-1.9-3.8-0.2-6.9
			l49.7-94.2c1.2-2.3,3.6-3.8,6.2-3.8h21.6c4.1,0,7.5-3.4,7.5-7.5s-3.4-7.5-7.5-7.5H120c-8.2,0-15.7,4.5-19.5,11.8l-49.7,94.2
			c-3.6,6.9-3.4,15,0.6,21.7c4,6.7,11.1,10.7,18.9,10.7h371.6c7.8,0,14.9-4,18.9-10.7C464.7,494.6,464.9,486.5,461.3,479.6z"/>
	</g>
</g>
</svg>
