<?xml version="1.0" encoding="utf-8"?>
<!-- Generator: Adobe Illustrator 19.2.0, SVG Export Plug-In . SVG Version: 6.00 Build 0)  -->
<svg version="1.1" id="Layer_1" xmlns="http://www.w3.org/2000/svg" xmlns:xlink="http://www.w3.org/1999/xlink" x="0px" y="0px"
	 viewBox="0 0 442 442" style="enable-background:new 0 0 442 442;" xml:space="preserve">
<style type="text/css">
	.st0{fill:#F46767;}
</style>
<path class="st0" d="M221,0C125.1,0,47.1,78,47.1,173.9c0,31.4,8.1,64.7,24.1,99.1c12.6,27.1,30.2,55,52.2,82.7
	c37.3,47.1,74,77.4,75.6,78.7c6,4.9,13.8,7.6,22.1,7.6s16.1-2.7,22.1-7.6c1.5-1.3,38.3-31.6,75.6-78.7c22-27.8,39.5-55.6,52.2-82.7
	c16-34.3,24.1-67.7,24.1-99.1C394.9,78,316.9,0,221,0L221,0z M303.2,343c-36,45.5-72.5,75.7-72.8,76c-2.4,1.9-5.8,3.1-9.4,3.1
	s-7-1.1-9.4-3.1c-1.4-1.2-144.5-120-144.5-245.1C67.1,89,136.1,20,221,20s153.9,69,153.9,153.9C374.9,238.7,335.9,301.6,303.2,343
	L303.2,343z"/>
<path class="st0" d="M221,81.4c-51,0-92.5,41.5-92.5,92.5c0,51,41.5,92.5,92.5,92.5s92.5-41.5,92.5-92.5
	C313.5,122.9,272,81.4,221,81.4L221,81.4z M221,246.3c-40,0-72.5-32.5-72.5-72.5s32.5-72.5,72.5-72.5s72.5,32.5,72.5,72.5
	S261,246.3,221,246.3L221,246.3z"/>
</svg>
