<?xml version="1.0" encoding="UTF-8"?>
<!DOCTYPE svg  PUBLIC '-//W3C//DTD SVG 1.1//EN'  'http://www.w3.org/Graphics/SVG/1.1/DTD/svg11.dtd'>
<svg enable-background="new 0 0 442 442" version="1.1" viewBox="0 0 442 442" xml:space="preserve" xmlns="http://www.w3.org/2000/svg">
	<path d="m221 0c-95.886 0-173.9 78.009-173.9 173.9 0 31.402 8.103 64.738 24.083 99.081 12.618 27.116 30.165 54.95 52.154 82.729 37.277 47.092 74.029 77.433 75.576 78.701 5.97 4.896 13.812 7.594 22.082 7.594s16.112-2.698 22.083-7.595c1.546-1.269 38.298-31.609 75.575-78.701 21.989-27.778 39.536-55.612 52.154-82.729 15.98-34.343 24.083-67.678 24.083-99.081 0-95.885-78.009-173.89-173.9-173.89zm82.229 342.97c-35.955 45.495-72.469 75.673-72.831 75.97-2.369 1.943-5.794 3.058-9.398 3.058s-7.029-1.115-9.397-3.058c-1.445-1.185-144.5-119.99-144.5-245.05-1e-3 -84.858 69.036-153.9 153.89-153.9s153.9 69.037 153.9 153.9c0 64.794-38.973 127.71-71.666 169.08z"/>
	<path d="m221 81.438c-50.98 0-92.456 41.476-92.456 92.457 0 50.98 41.476 92.456 92.456 92.456s92.456-41.476 92.456-92.456c0-50.981-41.476-92.457-92.456-92.457zm0 164.91c-39.953 0-72.456-32.503-72.456-72.456s32.503-72.457 72.456-72.457 72.456 32.504 72.456 72.457-32.503 72.456-72.456 72.456z"/>
</svg>
