<?xml version="1.0" encoding="utf-8"?>
<!-- Generator: Adobe Illustrator 23.0.4, SVG Export Plug-In . SVG Version: 6.00 Build 0)  -->
<svg version="1.1" id="object" xmlns="http://www.w3.org/2000/svg" xmlns:xlink="http://www.w3.org/1999/xlink" x="0px" y="0px"
	 viewBox="0 0 406.7 77.7" style="enable-background:new 0 0 406.7 77.7;" xml:space="preserve">
<style type="text/css">
	.st0{fill:url(#SVGID_1_);}
	.st1{fill:url(#SVGID_2_);}
	.st2{fill:url(#SVGID_3_);}
	.st3{fill:url(#SVGID_4_);}
	.st4{fill:url(#SVGID_5_);}
	.st5{fill:url(#SVGID_6_);}
	.st6{enable-background:new    ;}
	.st7{fill:#FFFFFF;}
</style>
<title>logo-white</title>
<radialGradient id="SVGID_1_" cx="819.3618" cy="28248.8066" r="42.25" gradientTransform="matrix(0.69 0 0 6.000000e-02 -524.53 -1622.5601)" gradientUnits="userSpaceOnUse">
	<stop  offset="0" style="stop-color:#000000;stop-opacity:0.4"/>
	<stop  offset="1" style="stop-color:#FFFFFF;stop-opacity:0"/>
</radialGradient>
<ellipse class="st0" cx="41.2" cy="69.5" rx="41.2" ry="2.7"/>
<linearGradient id="SVGID_2_" gradientUnits="userSpaceOnUse" x1="77.18" y1="1276.51" x2="102.02" y2="1276.51" gradientTransform="matrix(1 0 0 1 -60.8 -1258.25)">
	<stop  offset="0" style="stop-color:#FFCA52"/>
	<stop  offset="0.38" style="stop-color:#F5A42C"/>
	<stop  offset="0.81" style="stop-color:#F5A42C"/>
	<stop  offset="1" style="stop-color:#C17725"/>
</linearGradient>
<path class="st1" d="M19.1,36.3c-0.3-4.8,0.9-9.5,3.5-13.6c3.1-4.9,8.2-8.3,13.9-9.3c1.5-0.6,3.1-0.9,4.7-0.9V0.2
	C27.5,0.2,16.4,11.3,16.4,25C16.4,28.9,17.3,32.8,19.1,36.3z"/>
<linearGradient id="SVGID_3_" gradientUnits="userSpaceOnUse" x1="102.04" y1="1297.4351" x2="126.89" y2="1297.4351" gradientTransform="matrix(1 0 0 1 -60.8 -1258.25)">
	<stop  offset="0" style="stop-color:#2F7570"/>
	<stop  offset="0.18" style="stop-color:#5EA9A4"/>
	<stop  offset="0.62" style="stop-color:#5EA9A4"/>
	<stop  offset="1" style="stop-color:#84CFCA"/>
</linearGradient>
<path class="st2" d="M63.3,13.8c0.3,4.8-0.9,9.5-3.5,13.6c-3.1,4.9-8.2,8.3-13.9,9.3c-1.5,0.6-3.1,0.9-4.7,0.9v27.1
	c0,0,24.8-25.9,24.8-39.6C66.1,21.1,65.2,17.2,63.3,13.8z"/>
<linearGradient id="SVGID_4_" gradientUnits="userSpaceOnUse" x1="80.0563" y1="1287.2852" x2="111.8673" y2="1303.4957" gradientTransform="matrix(1 0 0 1 -60.8 -1258.25)">
	<stop  offset="0" style="stop-color:#C17725"/>
	<stop  offset="2.000000e-02" style="stop-color:#CC8026"/>
	<stop  offset="9.000000e-02" style="stop-color:#EA9A2A"/>
	<stop  offset="0.13" style="stop-color:#F5A42C"/>
	<stop  offset="0.62" style="stop-color:#F5A42C"/>
	<stop  offset="0.8" style="stop-color:#FFCA52"/>
	<stop  offset="1" style="stop-color:#FFCA52"/>
</linearGradient>
<path class="st3" d="M28.8,25c0-5,3.1-9.6,7.7-11.5c-5.7,1-10.8,4.3-13.9,9.2c-2.6,4-3.8,8.8-3.5,13.6c4.1,8,22.1,28.2,22.1,28.2
	v-27C34.3,37.5,28.8,32,28.8,25C28.8,25,28.8,25,28.8,25z"/>
<linearGradient id="SVGID_5_" gradientUnits="userSpaceOnUse" x1="95.4536" y1="1267.9591" x2="120.9336" y2="1285.139" gradientTransform="matrix(1 0 0 1 -60.8 -1258.25)">
	<stop  offset="5.000000e-02" style="stop-color:#FF547A"/>
	<stop  offset="0.38" style="stop-color:#ED2E54"/>
	<stop  offset="0.81" style="stop-color:#ED2E54"/>
	<stop  offset="1" style="stop-color:#BA0021"/>
</linearGradient>
<path class="st4" d="M53.7,24.8c0,5.1-3,9.7-7.7,11.7c5.8-1,10.9-4.4,14-9.4c2.5-4,3.7-8.7,3.4-13.5C59.2,5.3,50.6,0,41.2,0v12.6
	c6.8-0.1,12.4,5.4,12.5,12.2c0,0,0,0,0,0C53.7,24.7,53.7,24.8,53.7,24.8z"/>
<linearGradient id="SVGID_6_" gradientUnits="userSpaceOnUse" x1="84.5559" y1="1278.5719" x2="112.6367" y2="1314.5129" gradientTransform="matrix(1 0 0 1 -60.8 -1258.25)">
	<stop  offset="5.000000e-02" style="stop-color:#FF547A"/>
	<stop  offset="0.38" style="stop-color:#ED2E54"/>
	<stop  offset="0.81" style="stop-color:#ED2E54"/>
	<stop  offset="1" style="stop-color:#BA0021"/>
</linearGradient>
<path class="st5" d="M28.8,25c0-5,3.1-9.6,7.7-11.5c-5.7,1-10.8,4.3-13.9,9.2c-2.6,4-3.8,8.8-3.5,13.6c4.1,8,22.1,28.2,22.1,28.2
	v-27C34.3,37.5,28.8,32,28.8,25C28.8,25,28.8,25,28.8,25z"/>
<g>
	<g class="st6">
		<path class="st7" d="M91,60v-28H81v-5.7h26.7v5.7h-10v28H91z"/>
	</g>
	<g class="st6">
		<path class="st7" d="M103.4,47.5c0-2.1,0.5-4.2,1.6-6.2c1.1-2,2.6-3.5,4.5-4.6c1.9-1.1,4.1-1.6,6.5-1.6c3.7,0,6.7,1.2,9.1,3.6
			c2.4,2.4,3.5,5.4,3.5,9.1c0,3.7-1.2,6.7-3.6,9.2c-2.4,2.4-5.4,3.6-9,3.6c-2.2,0-4.4-0.5-6.4-1.5c-2-1-3.6-2.5-4.6-4.4
			C103.9,52.7,103.4,50.3,103.4,47.5z M110,47.8c0,2.4,0.6,4.3,1.7,5.6s2.6,1.9,4.2,1.9c1.7,0,3.1-0.6,4.2-1.9
			c1.1-1.3,1.7-3.2,1.7-5.6c0-2.4-0.6-4.2-1.7-5.5c-1.1-1.3-2.6-1.9-4.2-1.9c-1.7,0-3.1,0.6-4.2,1.9S110,45.4,110,47.8z"/>
		<path class="st7" d="M133.4,35.6h6v3.6c0.8-1.2,1.8-2.2,3.2-3c1.3-0.8,2.8-1.1,4.4-1.1c2.8,0,5.2,1.1,7.2,3.3c2,2.2,3,5.3,3,9.3
			c0,4.1-1,7.2-3,9.5c-2,2.3-4.4,3.4-7.2,3.4c-1.3,0-2.6-0.3-3.7-0.8c-1.1-0.5-2.2-1.5-3.5-2.8v12.3h-6.4V35.6z M139.8,47.4
			c0,2.7,0.5,4.8,1.6,6.1c1.1,1.3,2.4,2,4,2c1.5,0,2.7-0.6,3.7-1.8c1-1.2,1.5-3.2,1.5-5.9c0-2.6-0.5-4.5-1.5-5.7
			c-1-1.2-2.3-1.9-3.8-1.9c-1.6,0-2.9,0.6-3.9,1.8C140.3,43.2,139.8,45,139.8,47.4z"/>
	</g>
	<g class="st6">
		<path class="st7" d="M165.9,60V26.4h14.3c3.6,0,6.2,0.3,7.8,0.9c1.6,0.6,2.9,1.7,3.9,3.2c1,1.5,1.5,3.3,1.5,5.3
			c0,2.5-0.7,4.6-2.2,6.3c-1.5,1.6-3.7,2.7-6.7,3.1c1.5,0.9,2.7,1.8,3.6,2.8c1,1,2.2,2.8,3.9,5.5l4.1,6.6H188l-4.9-7.3
			c-1.7-2.6-2.9-4.3-3.6-4.9c-0.6-0.7-1.3-1.1-2-1.4c-0.7-0.3-1.9-0.4-3.4-0.4h-1.4v14H165.9z M172.6,40.6h5c3.3,0,5.3-0.1,6.1-0.4
			c0.8-0.3,1.4-0.7,1.9-1.4c0.5-0.7,0.7-1.5,0.7-2.5c0-1.1-0.3-2-0.9-2.7c-0.6-0.7-1.5-1.1-2.6-1.3c-0.6-0.1-2.2-0.1-5-0.1h-5.3
			V40.6z"/>
	</g>
	<g class="st6">
		<path class="st7" d="M212.7,52.3l6.4,1.1c-0.8,2.4-2.1,4.1-3.9,5.4c-1.8,1.2-4,1.8-6.7,1.8c-4.2,0-7.4-1.4-9.4-4.2
			c-1.6-2.2-2.4-5-2.4-8.4c0-4,1.1-7.2,3.2-9.5c2.1-2.3,4.8-3.4,8-3.4c3.6,0,6.5,1.2,8.6,3.6s3.1,6.1,3,11h-16.2
			c0,1.9,0.6,3.4,1.6,4.5c1,1.1,2.2,1.6,3.7,1.6c1,0,1.9-0.3,2.5-0.8S212.3,53.5,212.7,52.3z M213,45.7c0-1.9-0.5-3.3-1.4-4.3
			s-2-1.5-3.4-1.5c-1.4,0-2.6,0.5-3.5,1.5c-0.9,1-1.4,2.4-1.4,4.2H213z"/>
		<path class="st7" d="M222.4,53.1l6.5-1c0.3,1.3,0.8,2.2,1.7,2.9s2,1,3.5,1c1.7,0,2.9-0.3,3.8-0.9c0.6-0.4,0.8-1,0.8-1.7
			c0-0.5-0.2-0.9-0.5-1.2c-0.3-0.3-1-0.6-2.2-0.8c-5.2-1.1-8.5-2.2-9.9-3.1c-1.9-1.3-2.9-3.1-2.9-5.5c0-2.1,0.8-3.9,2.5-5.3
			c1.7-1.4,4.3-2.2,7.8-2.2c3.3,0,5.8,0.5,7.4,1.6c1.6,1.1,2.7,2.7,3.4,4.8l-6.1,1.1c-0.3-0.9-0.8-1.7-1.5-2.2
			c-0.7-0.5-1.8-0.8-3.1-0.8c-1.7,0-2.9,0.2-3.6,0.7c-0.5,0.3-0.7,0.8-0.7,1.3c0,0.5,0.2,0.8,0.6,1.2c0.6,0.4,2.6,1,6,1.8
			c3.4,0.8,5.8,1.7,7.2,2.9c1.3,1.1,2,2.7,2,4.8c0,2.2-0.9,4.2-2.8,5.8c-1.9,1.6-4.6,2.4-8.3,2.4c-3.3,0-5.9-0.7-7.9-2
			C224.3,57.2,223,55.4,222.4,53.1z"/>
		<path class="st7" d="M262,35.6v5.1h-4.4v9.8c0,2,0,3.1,0.1,3.5c0.1,0.3,0.3,0.6,0.6,0.8c0.3,0.2,0.7,0.3,1.1,0.3
			c0.6,0,1.5-0.2,2.6-0.6l0.6,5c-1.5,0.6-3.2,1-5.1,1c-1.2,0-2.2-0.2-3.1-0.6c-0.9-0.4-1.6-0.9-2.1-1.5c-0.4-0.6-0.7-1.5-0.9-2.5
			c-0.1-0.7-0.2-2.3-0.2-4.5V40.8h-3v-5.1h3v-4.8l6.5-3.8v8.6H262z"/>
		<path class="st7" d="M271.3,43.1l-5.9-1.1c0.7-2.4,1.8-4.1,3.4-5.2c1.6-1.1,4-1.7,7.2-1.7c2.9,0,5,0.3,6.4,1s2.4,1.5,3,2.6
			c0.6,1,0.9,3,0.9,5.8l-0.1,7.5c0,2.1,0.1,3.7,0.3,4.7c0.2,1,0.6,2.1,1.2,3.3h-6.4c-0.2-0.4-0.4-1.1-0.6-1.9
			c-0.1-0.4-0.2-0.6-0.2-0.8c-1.1,1.1-2.3,1.9-3.5,2.4c-1.3,0.5-2.6,0.8-4,0.8c-2.5,0-4.5-0.7-5.9-2c-1.4-1.4-2.2-3.1-2.2-5.2
			c0-1.4,0.3-2.6,1-3.7c0.7-1.1,1.6-1.9,2.8-2.5c1.2-0.6,2.9-1.1,5.1-1.5c3-0.6,5.1-1.1,6.3-1.6v-0.6c0-1.2-0.3-2.1-0.9-2.7
			c-0.6-0.5-1.8-0.8-3.5-0.8c-1.1,0-2,0.2-2.7,0.7S271.7,41.9,271.3,43.1z M279.9,48.3c-0.8,0.3-2.1,0.6-3.9,1
			c-1.8,0.4-3,0.8-3.5,1.1c-0.8,0.6-1.3,1.4-1.3,2.3c0,0.9,0.3,1.7,1,2.3c0.7,0.7,1.5,1,2.6,1c1.2,0,2.3-0.4,3.3-1.1
			c0.8-0.6,1.3-1.3,1.5-2.1c0.2-0.6,0.3-1.6,0.3-3.1V48.3z"/>
		<path class="st7" d="M308.7,60v-3.6c-0.9,1.3-2.1,2.3-3.5,3.1c-1.4,0.8-3,1.1-4.6,1.1c-1.6,0-3.1-0.4-4.4-1.1
			c-1.3-0.7-2.2-1.7-2.8-3c-0.6-1.3-0.9-3.1-0.9-5.4V35.6h6.4v11.2c0,3.4,0.1,5.5,0.4,6.3s0.7,1.4,1.3,1.8c0.6,0.5,1.4,0.7,2.4,0.7
			c1.1,0,2.1-0.3,3-0.9s1.5-1.4,1.8-2.2c0.3-0.9,0.5-3.1,0.5-6.6V35.6h6.4V60H308.7z"/>
		<path class="st7" d="M327.5,60H321V35.6h6v3.5c1-1.6,1.9-2.7,2.8-3.2c0.8-0.5,1.7-0.8,2.8-0.8c1.5,0,2.9,0.4,4.2,1.2l-2,5.6
			c-1.1-0.7-2.1-1.1-3-1.1c-0.9,0-1.7,0.2-2.3,0.7s-1.1,1.4-1.5,2.7c-0.4,1.3-0.5,4-0.5,8.2V60z"/>
		<path class="st7" d="M344.4,43.1l-5.9-1.1c0.7-2.4,1.8-4.1,3.4-5.2c1.6-1.1,4-1.7,7.2-1.7c2.9,0,5,0.3,6.4,1
			c1.4,0.7,2.4,1.5,3,2.6c0.6,1,0.9,3,0.9,5.8l-0.1,7.5c0,2.1,0.1,3.7,0.3,4.7c0.2,1,0.6,2.1,1.2,3.3h-6.4c-0.2-0.4-0.4-1.1-0.6-1.9
			c-0.1-0.4-0.2-0.6-0.2-0.8c-1.1,1.1-2.3,1.9-3.5,2.4c-1.3,0.5-2.6,0.8-4,0.8c-2.5,0-4.5-0.7-5.9-2c-1.4-1.4-2.2-3.1-2.2-5.2
			c0-1.4,0.3-2.6,1-3.7c0.7-1.1,1.6-1.9,2.8-2.5c1.2-0.6,2.9-1.1,5.1-1.5c3-0.6,5.1-1.1,6.3-1.6v-0.6c0-1.2-0.3-2.1-0.9-2.7
			c-0.6-0.5-1.8-0.8-3.5-0.8c-1.1,0-2,0.2-2.7,0.7S344.8,41.9,344.4,43.1z M353.1,48.3c-0.8,0.3-2.1,0.6-3.9,1
			c-1.8,0.4-3,0.8-3.5,1.1c-0.8,0.6-1.3,1.4-1.3,2.3c0,0.9,0.3,1.7,1,2.3c0.7,0.7,1.5,1,2.6,1c1.2,0,2.3-0.4,3.3-1.1
			c0.8-0.6,1.3-1.3,1.5-2.1c0.2-0.6,0.3-1.6,0.3-3.1V48.3z"/>
		<path class="st7" d="M387.9,60h-6.4V47.6c0-2.6-0.1-4.3-0.4-5.1c-0.3-0.8-0.7-1.4-1.3-1.8c-0.6-0.4-1.4-0.6-2.2-0.6
			c-1.1,0-2.1,0.3-3,0.9c-0.9,0.6-1.5,1.4-1.8,2.4s-0.5,2.9-0.5,5.6v11h-6.4V35.6h6v3.6c2.1-2.8,4.8-4.1,8-4.1
			c1.4,0,2.7,0.3,3.9,0.8c1.2,0.5,2.1,1.2,2.7,2c0.6,0.8,1,1.7,1.3,2.7s0.4,2.5,0.4,4.3V60z"/>
		<path class="st7" d="M405.6,35.6v5.1h-4.4v9.8c0,2,0,3.1,0.1,3.5c0.1,0.3,0.3,0.6,0.6,0.8c0.3,0.2,0.7,0.3,1.1,0.3
			c0.6,0,1.5-0.2,2.6-0.6l0.6,5c-1.5,0.6-3.2,1-5.1,1c-1.2,0-2.2-0.2-3.1-0.6c-0.9-0.4-1.6-0.9-2.1-1.5c-0.4-0.6-0.7-1.5-0.9-2.5
			c-0.1-0.7-0.2-2.3-0.2-4.5V40.8h-3v-5.1h3v-4.8l6.5-3.8v8.6H405.6z"/>
	</g>
</g>
</svg>
