<svg id="object" xmlns="http://www.w3.org/2000/svg" xmlns:xlink="http://www.w3.org/1999/xlink" viewBox="0 0 391.91 72.25"><defs><style>.cls-1{fill:url(#radial-gradient);}.cls-2{fill:url(#linear-gradient);}.cls-3{fill:url(#linear-gradient-2);}.cls-4{fill:url(#linear-gradient-3);}.cls-5{fill:url(#linear-gradient-4);}.cls-6{fill:url(#linear-gradient-5);}.cls-7{isolation:isolate;}.cls-8{fill:#2b2a2a;}</style><radialGradient id="radial-gradient" cx="770.84" cy="-23705.15" r="42.25" gradientTransform="matrix(0.69, 0, 0, -0.06, -491.05, -1349.94)" gradientUnits="userSpaceOnUse"><stop offset="0" stop-opacity="0.4"/><stop offset="1" stop-color="#fff" stop-opacity="0"/></radialGradient><linearGradient id="linear-gradient" x1="77.18" y1="-595.93" x2="102.02" y2="-595.93" gradientTransform="matrix(1, 0, 0, -1, -60.8, -576.25)" gradientUnits="userSpaceOnUse"><stop offset="0" stop-color="#ffca52"/><stop offset="0.38" stop-color="#f5a42c"/><stop offset="0.81" stop-color="#f5a42c"/><stop offset="1" stop-color="#c17725"/></linearGradient><linearGradient id="linear-gradient-2" x1="102.04" y1="-616.86" x2="126.89" y2="-616.86" gradientTransform="matrix(1, 0, 0, -1, -60.8, -576.25)" gradientUnits="userSpaceOnUse"><stop offset="0" stop-color="#2f7570"/><stop offset="0.18" stop-color="#5ea9a4"/><stop offset="0.62" stop-color="#5ea9a4"/><stop offset="1" stop-color="#84cfca"/></linearGradient><linearGradient id="linear-gradient-3" x1="80.06" y1="-606.71" x2="111.87" y2="-622.92" gradientTransform="matrix(1, 0, 0, -1, -60.8, -576.25)" gradientUnits="userSpaceOnUse"><stop offset="0" stop-color="#c17725"/><stop offset="0.02" stop-color="#cc8026"/><stop offset="0.09" stop-color="#ea9a2a"/><stop offset="0.13" stop-color="#f5a42c"/><stop offset="0.62" stop-color="#f5a42c"/><stop offset="0.8" stop-color="#ffca52"/><stop offset="1" stop-color="#ffca52"/></linearGradient><linearGradient id="linear-gradient-4" x1="95.44" y1="-587.4" x2="120.92" y2="-604.58" gradientTransform="matrix(1, 0, 0, -1, -60.8, -576.25)" gradientUnits="userSpaceOnUse"><stop offset="0.05" stop-color="#ff547a"/><stop offset="0.38" stop-color="#ed2e54"/><stop offset="0.81" stop-color="#ed2e54"/><stop offset="1" stop-color="#ba0021"/></linearGradient><linearGradient id="linear-gradient-5" x1="84.56" y1="-597.99" x2="112.64" y2="-633.93" xlink:href="#linear-gradient-4"/></defs><title>logo</title><ellipse class="cls-1" cx="41.22" cy="69.54" rx="41.22" ry="2.71"/><path class="cls-2" d="M19.11,37.76a22.58,22.58,0,0,1,3.46-13.59,20.63,20.63,0,0,1,13.92-9.29,12.4,12.4,0,0,1,4.73-.94V1.6A24.84,24.84,0,0,0,19.11,37.76Z" transform="translate(0 -1.42)"/><path class="cls-3" d="M63.35,15.17a22.58,22.58,0,0,1-3.46,13.55A20.63,20.63,0,0,1,46,38a12.4,12.4,0,0,1-4.73.94V66S66.09,40.18,66.09,26.48A24.7,24.7,0,0,0,63.35,15.17Z" transform="translate(0 -1.42)"/><path class="cls-4" d="M28.76,26.45a12.49,12.49,0,0,1,7.73-11.53,20.63,20.63,0,0,0-13.92,9.25,22.58,22.58,0,0,0-3.46,13.55C23.23,45.72,41.23,66,41.23,66v-27A12.48,12.48,0,0,1,28.76,26.45Z" transform="translate(0 -1.42)"/><path class="cls-5" d="M53.69,26.27A12.74,12.74,0,0,1,46,38,20.48,20.48,0,0,0,60,28.6a22.63,22.63,0,0,0,3.4-13.46A25,25,0,0,0,41.2,1.42V14A12.33,12.33,0,0,1,53.69,26.15S53.69,26.23,53.69,26.27Z" transform="translate(0 -1.42)"/><path class="cls-6" d="M28.76,26.45a12.49,12.49,0,0,1,7.73-11.53,20.63,20.63,0,0,0-13.92,9.25,22.58,22.58,0,0,0-3.46,13.55C23.23,45.72,41.23,66,41.23,66v-27A12.48,12.48,0,0,1,28.76,26.45Z" transform="translate(0 -1.42)"/><g class="cls-7"><g class="cls-7"><path class="cls-8" d="M84.63,19.63h23.5v5.73H99.67V51.59H93.18V25.36H84.63V19.63Z" transform="translate(0 -1.42)"/></g><g class="cls-7"><path class="cls-8" d="M128.81,39.79c0,7.24-2.63,12.36-10.81,12.36S107.19,47,107.19,39.79,109.82,27.53,118,27.53,128.81,32.56,128.81,39.79Zm-6.39,0c0-4.56-.94-6.91-4.42-6.91s-4.42,2.35-4.42,6.91,0.94,7,4.42,7S122.42,44.35,122.42,39.79Z" transform="translate(0 -1.42)"/><path class="cls-8" d="M133.42,28.09h6.25v1.27s3.05-1.83,5.36-1.83c6.2,0,9.26,3.38,9.26,12.13,0,10-3.48,12.5-10.67,12.5a27.28,27.28,0,0,1-3.9-.38v9.68h-6.3V28.09Zm6.3,6V46.42a33.64,33.64,0,0,0,3.43.28c3.76,0,4.75-2.07,4.75-7,0-4.75-1.6-6.49-4.09-6.49A12.15,12.15,0,0,0,139.72,34.11Z" transform="translate(0 -1.42)"/></g><g class="cls-7"><path class="cls-8" d="M176.37,40.87V51.59h-6.49v-32h12.41c7.28,0,11.28,3.24,11.28,10.53,0,4.42-1.79,7.38-4.7,9.21l4.56,12.22h-7.1l-3.71-10.71h-6.25Zm5.92-15.7h-5.92V35.33h6c3.24,0,4.56-2.26,4.56-5.08C186.95,27.2,185.4,25.18,182.29,25.18Z" transform="translate(0 -1.42)"/></g><g class="cls-7"><path class="cls-8" d="M216.69,46.19l0.09,4.65A49.71,49.71,0,0,1,207,52.15c-7.1,0-10.1-3.53-10.1-12s3.52-12.64,10.39-12.64,10.25,3.52,10.25,10.62l-0.47,4.37H203.25c0,2.82,1.36,4.09,4.75,4.09C211.85,46.61,216.69,46.19,216.69,46.19Zm-5.36-8.46c0-3.81-1.08-5-4-5s-4,1.46-4.09,5h8.13Z" transform="translate(0 -1.42)"/><path class="cls-8" d="M238.93,34s-5.83-.75-8.55-0.75-3.29.61-3.29,1.88c0,1.08.89,1.32,5.22,2.12,5.45,1,7.38,2.58,7.38,7.33,0,5.5-3.57,7.61-9.45,7.61a58.76,58.76,0,0,1-9-1.13l0.19-5.26s5.83,0.75,8.22.75c3,0,3.81-.61,3.81-1.83,0-1-.52-1.5-4.84-2.21-5.08-.85-7.75-2.07-7.75-7.24,0-5.45,4.14-7.66,9.07-7.66A60.35,60.35,0,0,1,239,28.75Z" transform="translate(0 -1.42)"/><path class="cls-8" d="M251.47,33.45v9.63c0,2.35,0,3.43,2,3.43,1.32,0,3.57-.09,3.57-0.09l0.28,5a30.66,30.66,0,0,1-4.79.71c-5.69,0-7.33-2.16-7.33-8.93V33.45H242.4V28.09h2.77V21.56h6.3v6.53h5.78v5.36h-5.78Z" transform="translate(0 -1.42)"/><path class="cls-8" d="M279.34,45.2c0.09,1.41.28,2,1.55,2.21l-0.19,4.75c-3.15,0-4.75-.33-6.72-1.65a18.09,18.09,0,0,1-6.91,1.65c-4.93,0-7.28-2.73-7.28-7.71,0-5.31,3.05-6.81,8.22-7.19l5-.38V35.42c0-2-.89-2.54-2.77-2.54-3.1,0-8.84.38-8.84,0.38l-0.19-4.37a42.8,42.8,0,0,1,9.54-1.36c6.11,0,8.55,2.4,8.55,7.9V45.2Zm-10.57-3.57c-1.65.14-2.63,0.94-2.63,2.63s0.61,2.77,2.3,2.77a20.08,20.08,0,0,0,4.61-.75v-5Z" transform="translate(0 -1.42)"/><path class="cls-8" d="M305.52,28.09v23.5h-6.25V50.27s-3.38,1.88-5.87,1.88c-6.86,0-8.27-3.81-8.27-11.75V28.09h6.3V40.5c0,4.18.19,6,3.29,6a14,14,0,0,0,4.51-.85V28.09h6.3Z" transform="translate(0 -1.42)"/><path class="cls-8" d="M311.35,28.09h6.25v2.49a28.48,28.48,0,0,1,7.52-3.05v6.34a58.58,58.58,0,0,0-7.47,2V51.59h-6.3V28.09Z" transform="translate(0 -1.42)"/><path class="cls-8" d="M346.84,45.2c0.09,1.41.28,2,1.55,2.21l-0.19,4.75c-3.15,0-4.75-.33-6.72-1.65a18.09,18.09,0,0,1-6.91,1.65c-4.93,0-7.28-2.73-7.28-7.71,0-5.31,3.05-6.81,8.22-7.19l5-.38V35.42c0-2-.89-2.54-2.77-2.54-3.1,0-8.84.38-8.84,0.38l-0.19-4.37a42.8,42.8,0,0,1,9.54-1.36c6.11,0,8.55,2.4,8.55,7.9V45.2Zm-10.57-3.57c-1.65.14-2.63,0.94-2.63,2.63s0.61,2.77,2.3,2.77a20.08,20.08,0,0,0,4.61-.75v-5Z" transform="translate(0 -1.42)"/><path class="cls-8" d="M352.85,51.59V28.09h6.25v1.32s3.2-1.88,5.88-1.88c6.58,0,8.27,4.14,8.27,11.33V51.59H367V39c0-3.57-.47-5.87-3.52-5.87a12.84,12.84,0,0,0-4.28.85V51.59h-6.3Z" transform="translate(0 -1.42)"/><path class="cls-8" d="M386.08,33.45v9.63c0,2.35,0,3.43,2,3.43,1.32,0,3.57-.09,3.57-0.09l0.28,5a30.68,30.68,0,0,1-4.79.71c-5.69,0-7.33-2.16-7.33-8.93V33.45H377V28.09h2.77V21.56h6.3v6.53h5.78v5.36h-5.78Z" transform="translate(0 -1.42)"/></g></g></svg>